<svg xmlns="http://www.w3.org/2000/svg" viewBox="0 0 100 100">
  <!-- Hockey Stick - Side View -->
  <!-- Blade -->
  <path d="M 20 75 L 25 72 Q 30 70 35 72 Q 45 76 50 80 Q 55 82 60 80 Q 65 78 70 75 Q 75 72 78 68 Q 80 65 78 60 Q 76 55 72 52 Q 68 50 65 52 L 60 55 L 55 52 Q 50 50 45 52 Q 40 55 35 58 Q 30 62 25 65 Q 22 68 20 72 Z" 
        fill="#000" 
        stroke="#333" 
        stroke-width="0.5"/>
  <!-- Shaft -->
  <rect x="20" y="15" width="6" height="60" 
        fill="#000" 
        stroke="#333" 
        stroke-width="0.5" 
        rx="1"/>
  <!-- Blade to Shaft Connection -->
  <path d="M 26 72 Q 28 70 30 68 Q 32 66 30 64 Q 28 62 26 64 Q 24 66 22 68 Q 20 70 22 72 Z" 
        fill="#000" 
        stroke="#333" 
        stroke-width="0.5"/>
  <!-- Grip Tape -->
  <rect x="18" y="12" width="10" height="6" 
        fill="#444" 
        stroke="#333" 
        stroke-width="0.5" 
        rx="1"/>
</svg>